{"title":"Puberty Blues (1981) DVD RIP","uid":9078582,"size":817884160,"categoryP":"video","categoryS":"movies","magnet":"?xt=urn:btih:2d5217209e639d9e27686f5a6c802cc0f34f2770&amp;dn=Puberty+Blues+%281981%29+DVD+RIP&amp;tr=udp%3A%2F%2Ftracker.openbittorrent.com%3A80&amp;tr=udp%3A%2F%2Fopen.demonii.com%3A1337&amp;tr=udp%3A%2F%2Ftracker.coppersurfer.tk%3A6969&amp;tr=udp%3A%2F%2Fexodus.desync.com%3A6969","seeders":1,"leechers":0,"uploader":"jmanwf","files":2,"time":1382343153,"description":" &lt;a href=&quot;http://www.imdb.com/title/tt0082956/&quot; rel=&quot;nofollow&quot; target=&quot;_NEW&quot;&gt;http://www.imdb.com/title/tt0082956/&lt;/a&gt;\n\n\n\nStoryline\n\nMeet Sue, a teenage Australian girl in the late 70s, whose life mainly consists of doing what everyone else does - watch the surfing boys and have sex with the same surfing boys. The girls have to follow lots of strange customs, e.g. do not eat or go to the bathroom when a boy is around. Ugly girls have two choices - being bitches and hate boys, or being generally cheap and looked down upon by everyone. The afternoons are spent on the beaches, in the backseats of car or at home-alone-parties where sex and alcohol are the main ingredients. Parents and teachers are trying to straighten the kids out, but that is not easy.\n\n\n\n\nFormat                                   : MPEG-4\nFormat profile                           : Base Media / Version 2\nCodec ID                                 : mp42\nFile size                                : 774 MiB\nDuration                                 : 1h 23mn\nOverall bit rate mode                    : Variable\nOverall bit rate                         : 1 301 Kbps\nEncoded date                             : UTC 2013-10-21 05:22:31\nTagged date                              : UTC 2013-10-21 06:07:16\nWriting application                      : HandBrake 0.9.9 2013052900\n\nVideo\nID                                       : 1\nFormat                                   : AVC\nFormat/Info                              : Advanced Video Codec\nFormat profile                           : &lt;a class=&quot;__cf_email__&quot; href=&quot;/cdn-cgi/l/email-protection&quot; data-cfemail=&quot;6d25040a052d2159435c&quot;&gt;[email&amp;#160;protected]&lt;/a&gt;&lt;script cf-hash='f9e31' type=&quot;text/javascript&quot;&gt;\n/* &lt;![CDATA[ */!function(){try{var t=&quot;currentScript&quot;in document?document.currentScript:function(){for(var t=document.getElementsByTagName(&quot;script&quot;),e=t.length;e--;)if(t[e].getAttribute(&quot;cf-hash&quot;))return t[e]}();if(t&amp;&amp;t.previousSibling){var e,r,n,i,c=t.previousSibling,a=c.getAttribute(&quot;data-cfemail&quot;);if(a){for(e=&quot;&quot;,r=parseInt(a.substr(0,2),16),n=2;a.length-n;n+=2)i=parseInt(a.substr(n,2),16)^r,e+=String.fromCharCode(i);e=document.createTextNode(e),c.parentNode.replaceChild(e,c)}}}catch(u){}}();/* ]]&gt; */&lt;/script&gt;\nFormat settings, CABAC                   : Yes\nFormat settings, ReFrames                : 4 frames\nCodec ID                                 : avc1\nCodec ID/Info                            : Advanced Video Coding\nDuration                                 : 1h 23mn\nBit rate mode                            : Variable\nBit rate                                 : 1 137 Kbps\nWidth                                    : 716 pixels\nHeight                                   : 444 pixels\nDisplay aspect ratio                     : 2.25:1\nFrame rate mode                          : Variable\nFrame rate                               : 25.000 fps\nMinimum frame rate                       : 8.333 fps\nMaximum frame rate                       : 25.000 fps\nColor space                              : YUV\nChroma subsampling                       : 4:2:0\nBit depth                                : 8 bits\nScan type                                : Progressive\nBits/(Pixel*Frame)                       : 0.143\nStream size                              : 676 MiB (87%)\nWriting library                          : x264 core 130 r2273 b3065e6\nEncoding settings                        : cabac=1 // deblock=1:0:0 / \nEncoded date                             : UTC 2013-10-21 05:22:31\nTagged date                              : UTC 2013-10-21 06:07:16\nColor primaries                          : BT.601 PAL\nTransfer characteristics                 : BT.709\nMatrix coefficients                      : BT.601\n\nAudio\nID                                       : 2\nFormat                                   : AAC\nFormat/Info                              : Advanced Audio Codec\nFormat profile                           : LC\nCodec ID                                 : 40\nDuration                                 : 1h 23mn\nBit rate mode                            : Variable\nBit rate                                 : 160 Kbps\nMaximum bit rate                         : 195 Kbps\nChannel(s)                               : 2 channels\nChannel positions                        : Front: L R\nSampling rate                            : 48.0 KHz\nCompression mode                         : Lossy\nDelay relative to video                  : 160ms\nStream size                              : 95.1 MiB (12%)\nLanguage                                 : English\nEncoded date                             : UTC 2013-10-21 05:22:31\nTagged date                              : UTC 2013-10-21 06:07:15\n","torrent":{"xt":"urn:btih:2d5217209e639d9e27686f5a6c802cc0f34f2770","amp;dn":"Puberty+Blues+%281981%29+DVD+RIP","amp;tr":["udp%3A%2F%2Ftracker.openbittorrent.com%3A80","udp%3A%2F%2Fopen.demonii.com%3A1337","udp%3A%2F%2Ftracker.coppersurfer.tk%3A6969","udp%3A%2F%2Fexodus.desync.com%3A6969"],"infoHash":"2d5217209e639d9e27686f5a6c802cc0f34f2770","infoHashBuffer":{"type":"Buffer","data":[45,82,23,32,158,99,157,158,39,104,111,90,108,128,44,192,243,79,39,112]},"announce":[],"urlList":[]}}